<svg width="20" height="20" viewBox="0 0 20 20" fill="none" xmlns="http://www.w3.org/2000/svg">
<circle cx="10" cy="10" r="10" fill="#8C8C8C"/>
<path d="M9.75193 1.06588C9.90565 0.978041 10.0944 0.978041 10.2481 1.06588L13.9981 3.20874C14.1539 3.29776 14.25 3.46343 14.25 3.64286V7.63841L17.7481 9.63731C17.9039 9.72633 18 9.892 18 10.0714V14.3571C18 14.5366 17.9039 14.7022 17.7481 14.7913L13.9981 16.9341C13.8444 17.022 13.6556 17.022 13.5019 16.9341L10 14.933L6.49807 16.9341C6.34435 17.022 6.15565 17.022 6.00193 16.9341L2.25193 14.7913C2.09614 14.7022 2 14.5366 2 14.3571V10.0714C2 9.892 2.09614 9.72633 2.25193 9.63731L5.75 7.63841V3.64286C5.75 3.46343 5.84614 3.29776 6.00193 3.20874L9.75193 1.06588ZM6.25 8.50445L3.50778 10.0714L6.25 11.6384L8.99222 10.0714L6.25 8.50445ZM9.5 10.933L6.75 12.5044V15.6384L9.5 14.067V10.933ZM10.5 14.067L13.25 15.6384V12.5044L10.5 10.933V14.067ZM11.0078 10.0714L13.75 11.6384L16.4922 10.0714L13.75 8.50445L11.0078 10.0714ZM13.25 7.63841V4.50445L10.5 6.07588V9.20984L13.25 7.63841ZM9.5 9.20984V6.07588L6.75 4.50445V7.63841L9.5 9.20984ZM7.25778 3.64286L10 5.20984L12.7422 3.64286L10 2.07588L7.25778 3.64286ZM17 10.933L14.25 12.5044V15.6384L17 14.067V10.933ZM5.75 15.6384V12.5044L3 10.933V14.067L5.75 15.6384Z" fill="white"/>
</svg>
